<svg width="38" height="38" viewBox="0 0 38 38" fill="none" xmlns="http://www.w3.org/2000/svg">
<path d="M31.4637 16.7883L28.9454 14.2718V8.10466C28.9454 7.14947 28.1639 6.36794 27.2087 6.36794H25.472C24.5168 6.36794 23.7353 7.14947 23.7353 8.10466V9.06507L20.2618 5.5951C19.7877 5.14703 19.3535 4.63123 18.5251 4.63123C17.6967 4.63123 17.2625 5.14703 16.7884 5.5951L5.58654 16.7883C5.04469 17.3527 4.63135 17.7643 4.63135 18.525C4.63135 19.5027 5.38161 20.2617 6.36807 20.2617H8.10479V30.682C8.10479 31.6372 8.88631 32.4187 9.8415 32.4187H13.3149C14.2741 32.4187 15.0517 31.6412 15.0517 30.682V23.7351C15.0517 22.7799 15.8332 21.9984 16.7884 21.9984H20.2618C21.217 21.9984 21.9985 22.7799 21.9985 23.7351V30.682C21.9985 31.6412 21.9077 32.4187 22.8669 32.4187H27.2087C28.1639 32.4187 28.9454 31.6372 28.9454 30.682V20.2617H30.6821C31.6686 20.2617 32.4188 19.5027 32.4188 18.525C32.4188 17.7643 32.0055 17.3527 31.4637 16.7883Z" fill="#6938EF" stroke="#6938EF" stroke-width="2" stroke-linejoin="round"/>
</svg>
