<svg width="152" height="76" viewBox="0 0 152 76" fill="none" xmlns="http://www.w3.org/2000/svg">
<path d="M0 24.1816H145.333C149.015 24.1816 152 27.1664 152 30.8483V52.9695H0V24.1816Z" fill="white"/>
<path d="M0 57.5752H145.333C149.015 57.5752 152 60.56 152 64.2419V64.4843H0V57.5752Z" fill="white"/>
<path d="M12.666 20.485C12.666 16.8031 15.6508 13.8184 19.3327 13.8184H40.5448C44.2267 13.8184 47.2115 16.8031 47.2115 20.485V24.6487H12.666V20.485Z" fill="white"/>
<path d="M0 4.60607C0 2.06221 2.0622 0 4.60606 0C7.14992 0 9.21212 2.0622 9.21212 4.60606V76H0V4.60607Z" fill="white"/>
<path d="M142.787 18.4244C142.787 15.8806 144.849 13.8184 147.393 13.8184C149.937 13.8184 151.999 15.8806 151.999 18.4244V76.0002H142.787V18.4244Z" fill="white"/>
</svg>
