<svg width="145" height="109" viewBox="0 0 145 109" fill="none" xmlns="http://www.w3.org/2000/svg">
<path d="M1.50133 87.0834C1.5683 80.4227 4.94083 73.933 11.043 70.1292L41.6289 51.0636L63.2517 85.3462L32.68 104.403C23.1495 110.344 10.582 107.476 4.61104 98.0091C2.54829 94.7387 1.54195 91.1073 1.50157 87.51C1.49998 87.3678 1.4999 87.2255 1.50133 87.0834ZM143.46 88.5473C143.255 91.8016 142.254 95.0528 140.389 98.0091C134.418 107.476 121.85 110.344 112.32 104.403L81.7483 85.3462L103.371 51.0636L133.957 70.1292C139.592 73.6416 142.899 79.4443 143.425 85.557C143.511 86.5484 143.523 87.548 143.46 88.5473Z" stroke="#98A2B3" stroke-width="3"/>
<path d="M36 4.79297L55.2568 35.0455" stroke="#98A2B3" stroke-width="3" stroke-linecap="round"/>
<path d="M111 4.79297L91.7432 35.0455" stroke="#98A2B3" stroke-width="3" stroke-linecap="round"/>
<path d="M73.8438 2L73.8602 37" stroke="#98A2B3" stroke-width="3" stroke-linecap="round"/>
</svg>
